<mxfile type="github" version="12.7.4" etag="rsxH95C_P_PUu8bafxbP" agent="Mozilla/5.0 (Windows NT 10.0; Win64; x64) AppleWebKit/537.36 (KHTML, like Gecko) Chrome/70.0.3538.102 Safari/537.36 Edge/18.18362" modified="2020-02-23T12:43:17.408Z" host="www.draw.io">
  <diagram id="ke7XoHflBV4eXpuMuqaa" name="Page-1">
    <mxGraphModel grid="1" shadow="0" math="0" pageHeight="1169" pageWidth="827" pageScale="1" page="1" fold="1" arrows="1" connect="1" tooltips="1" guides="1" gridSize="10" dy="576" dx="1038">
      <root>
        <mxCell id="0" />
        <mxCell id="1" parent="0" />
        <mxCell id="xIkqlbwyr2IS6F9TEkII-3" value="&lt;table width=&quot;100%&quot; style=&quot;width: 100% ; height: 100% ; border-collapse: collapse&quot; border=&quot;1&quot; cellpadding=&quot;4&quot;&gt;&lt;tbody&gt;&lt;tr style=&quot;background-color: #a7c942 ; color: #ffffff ; border: 1px solid #98bf21&quot;&gt;&lt;th align=&quot;left&quot;&gt;working hours (FK)&lt;/th&gt;&lt;th align=&quot;left&quot;&gt;number (FK)&lt;/th&gt;&lt;th align=&quot;left&quot;&gt;&lt;br&gt;&lt;/th&gt;&lt;/tr&gt;&lt;tr style=&quot;border: 1px solid #98bf21&quot;&gt;&lt;td&gt;8:00 - 20:00 (время)&lt;/td&gt;&lt;td&gt;89196543737&amp;nbsp; (числовой)&lt;/td&gt;&lt;td&gt;&lt;br&gt;&lt;/td&gt;&lt;/tr&gt;&lt;tr style=&quot;background-color: #eaf2d3 ; border: 1px solid #98bf21&quot;&gt;&lt;td&gt;9:00 - 19:00&lt;/td&gt;&lt;td&gt;89196542967&lt;/td&gt;&lt;td&gt;&lt;br&gt;&lt;/td&gt;&lt;/tr&gt;&lt;tr style=&quot;border: 1px solid #98bf21&quot;&gt;&lt;td&gt;12:00 - 20:00&lt;/td&gt;&lt;td&gt;89196543120&lt;/td&gt;&lt;td&gt;&lt;br&gt;&lt;/td&gt;&lt;/tr&gt;&lt;tr style=&quot;background-color: #eaf2d3 ; border: 1px solid #98bf21&quot;&gt;&lt;td&gt;9:00 - 19:00&lt;/td&gt;&lt;td&gt;89196548866&lt;/td&gt;&lt;td&gt;&lt;br&gt;&lt;/td&gt;&lt;/tr&gt;&lt;/tbody&gt;&lt;/table&gt;" parent="1" vertex="1" style="text;html=1;strokeColor=#6c8ebf;fillColor=#dae8fc;overflow=fill;rounded=0;">
          <mxGeometry as="geometry" height="160" width="310" y="323" x="660" />
        </mxCell>
        <mxCell id="xIkqlbwyr2IS6F9TEkII-10" parent="1" style="edgeStyle=orthogonalEdgeStyle;rounded=0;orthogonalLoop=1;jettySize=auto;html=1;" edge="1" source="xIkqlbwyr2IS6F9TEkII-6">
          <mxGeometry as="geometry" relative="1">
            <mxPoint as="targetPoint" y="700" x="270" />
            <Array as="points">
              <mxPoint y="510" x="150" />
              <mxPoint y="520" x="150" />
              <mxPoint y="520" x="160" />
              <mxPoint y="690" x="160" />
            </Array>
          </mxGeometry>
        </mxCell>
        <mxCell id="xIkqlbwyr2IS6F9TEkII-6" value="&lt;table width=&quot;100%&quot; style=&quot;width: 100% ; height: 100% ; border-collapse: collapse&quot; border=&quot;1&quot; cellpadding=&quot;4&quot;&gt;&lt;tbody&gt;&lt;tr style=&quot;background-color: #a7c942 ; color: #ffffff ; border: 1px solid #98bf21&quot;&gt;&lt;th align=&quot;left&quot;&gt;id&lt;/th&gt;&lt;th align=&quot;left&quot;&gt;name of exhibition (PK)&lt;/th&gt;&lt;th align=&quot;left&quot;&gt;description (FK)&lt;/th&gt;&lt;/tr&gt;&lt;tr style=&quot;border: 1px solid #98bf21&quot;&gt;&lt;td&gt;1 (числовой)&lt;/td&gt;&lt;td&gt;Red October (текстовой)&lt;/td&gt;&lt;td&gt;Картины с пейзажами русской осени (текстовой)&lt;/td&gt;&lt;/tr&gt;&lt;tr style=&quot;background-color: #eaf2d3 ; border: 1px solid #98bf21&quot;&gt;&lt;td&gt;2&lt;/td&gt;&lt;td&gt;National Russian cuisine&lt;/td&gt;&lt;td&gt;Национальные русские блюда&lt;/td&gt;&lt;/tr&gt;&lt;tr style=&quot;border: 1px solid #98bf21&quot;&gt;&lt;td&gt;3&lt;/td&gt;&lt;td&gt;The Glitter&lt;/td&gt;&lt;td&gt;Игра света&lt;/td&gt;&lt;/tr&gt;&lt;tr style=&quot;background-color: #eaf2d3 ; border: 1px solid #98bf21&quot;&gt;&lt;td&gt;4&lt;/td&gt;&lt;td&gt;Perfection&lt;/td&gt;&lt;td&gt;Скульптуры из льда&lt;/td&gt;&lt;/tr&gt;&lt;/tbody&gt;&lt;/table&gt;" parent="1" vertex="1" style="text;html=1;strokeColor=#d6b656;fillColor=#fff2cc;overflow=fill;rounded=0;gradientColor=#FFF4C3;">
          <mxGeometry as="geometry" height="160" width="510" y="500" x="170" />
        </mxCell>
        <mxCell id="xIkqlbwyr2IS6F9TEkII-7" value="&lt;table width=&quot;100%&quot; style=&quot;width: 100% ; height: 100% ; border-collapse: collapse&quot; border=&quot;1&quot; cellpadding=&quot;4&quot;&gt;&lt;tbody&gt;&lt;tr style=&quot;background-color: #a7c942 ; color: #ffffff ; border: 1px solid #98bf21&quot;&gt;&lt;th align=&quot;left&quot;&gt;id&lt;/th&gt;&lt;th align=&quot;left&quot;&gt;id_nameofexhibiton (PK)&lt;/th&gt;&lt;th align=&quot;left&quot;&gt;id_nameofmuseum (PK)&lt;/th&gt;&lt;/tr&gt;&lt;tr style=&quot;border: 1px solid #98bf21&quot;&gt;&lt;td&gt;1 (числовой)&lt;/td&gt;&lt;td&gt;Red October (текстовой)&lt;/td&gt;&lt;td&gt;Третьяковская галерея (текстовой)&lt;/td&gt;&lt;/tr&gt;&lt;tr style=&quot;background-color: #eaf2d3 ; border: 1px solid #98bf21&quot;&gt;&lt;td&gt;2&lt;/td&gt;&lt;td&gt;National Russian cuisine&lt;/td&gt;&lt;td&gt;Музей народного творчества&lt;/td&gt;&lt;/tr&gt;&lt;tr style=&quot;border: 1px solid #98bf21&quot;&gt;&lt;td&gt;3&lt;/td&gt;&lt;td&gt;The Glitter&lt;/td&gt;&lt;td&gt;Исторический музей&lt;/td&gt;&lt;/tr&gt;&lt;tr style=&quot;background-color: #eaf2d3 ; border: 1px solid #98bf21&quot;&gt;&lt;td&gt;4&lt;/td&gt;&lt;td&gt;Perfection&lt;/td&gt;&lt;td&gt;Музей стекла&lt;/td&gt;&lt;/tr&gt;&lt;/tbody&gt;&lt;/table&gt;" parent="1" vertex="1" style="text;html=1;strokeColor=#9673a6;fillColor=#e1d5e7;overflow=fill;rounded=0;">
          <mxGeometry as="geometry" height="160" width="430" y="700" x="170" />
        </mxCell>
        <mxCell id="xIkqlbwyr2IS6F9TEkII-8" value="&lt;table width=&quot;100%&quot; style=&quot;width: 100% ; height: 100% ; border-collapse: collapse&quot; border=&quot;1&quot; cellpadding=&quot;4&quot;&gt;&lt;tbody&gt;&lt;tr style=&quot;background-color: #a7c942 ; color: #ffffff ; border: 1px solid #98bf21&quot;&gt;&lt;th align=&quot;left&quot;&gt;date (FK)&lt;/th&gt;&lt;th align=&quot;left&quot;&gt;price (FK)&lt;/th&gt;&lt;th align=&quot;left&quot;&gt;&lt;br&gt;&lt;/th&gt;&lt;/tr&gt;&lt;tr style=&quot;border: 1px solid #98bf21&quot;&gt;&lt;td&gt;23 февраля - 22 мая (дата)&lt;/td&gt;&lt;td&gt;200 руб (числовой)&lt;/td&gt;&lt;td&gt;&lt;br&gt;&lt;/td&gt;&lt;/tr&gt;&lt;tr style=&quot;background-color: #eaf2d3 ; border: 1px solid #98bf21&quot;&gt;&lt;td&gt;3 января - 4 июля&lt;/td&gt;&lt;td&gt;350&amp;nbsp; руб&lt;/td&gt;&lt;td&gt;&lt;br&gt;&lt;/td&gt;&lt;/tr&gt;&lt;tr style=&quot;border: 1px solid #98bf21&quot;&gt;&lt;td&gt;7 апреля - 12 мая&lt;/td&gt;&lt;td&gt;400 руб&lt;/td&gt;&lt;td&gt;&lt;br&gt;&lt;/td&gt;&lt;/tr&gt;&lt;tr style=&quot;background-color: #eaf2d3 ; border: 1px solid #98bf21&quot;&gt;&lt;td&gt;13 марта - 24 апреля&lt;/td&gt;&lt;td&gt;300 руб&lt;/td&gt;&lt;td&gt;&lt;br&gt;&lt;/td&gt;&lt;/tr&gt;&lt;/tbody&gt;&lt;/table&gt;" parent="1" vertex="1" style="text;html=1;strokeColor=#9673a6;fillColor=#e1d5e7;overflow=fill;rounded=0;">
          <mxGeometry as="geometry" height="160" width="390" y="700" x="600" />
        </mxCell>
        <mxCell id="xIkqlbwyr2IS6F9TEkII-9" parent="1" style="edgeStyle=orthogonalEdgeStyle;rounded=0;orthogonalLoop=1;jettySize=auto;html=1;exitX=-0.002;exitY=0.096;exitDx=0;exitDy=0;exitPerimeter=0;entryX=0.837;entryY=0.01;entryDx=0;entryDy=0;entryPerimeter=0;" edge="1" target="xIkqlbwyr2IS6F9TEkII-7" source="xIkqlbwyr2IS6F9TEkII-1">
          <mxGeometry as="geometry" relative="1">
            <mxPoint as="targetPoint" y="670" x="370" />
            <Array as="points">
              <mxPoint y="338" x="150" />
              <mxPoint y="370" x="150" />
              <mxPoint y="370" x="51" />
              <mxPoint y="696" x="51" />
              <mxPoint y="696" x="440" />
              <mxPoint y="670" x="440" />
              <mxPoint y="670" x="463" />
              <mxPoint y="690" x="463" />
              <mxPoint y="690" x="480" />
            </Array>
          </mxGeometry>
        </mxCell>
        <mxCell id="xIkqlbwyr2IS6F9TEkII-1" value="&lt;table width=&quot;100%&quot; style=&quot;width: 100% ; height: 100% ; border-collapse: collapse&quot; border=&quot;1&quot; cellpadding=&quot;4&quot;&gt;&lt;tbody&gt;&lt;tr style=&quot;background-color: #a7c942 ; color: #ffffff ; border: 1px solid #98bf21&quot;&gt;&lt;th align=&quot;left&quot;&gt;id&lt;/th&gt;&lt;th align=&quot;left&quot;&gt;name of museum (PK)&lt;/th&gt;&lt;th align=&quot;left&quot;&gt;address (PK)&lt;/th&gt;&lt;/tr&gt;&lt;tr style=&quot;border: 1px solid #98bf21&quot;&gt;&lt;td&gt;1 (числовой)&lt;/td&gt;&lt;td&gt;Третьяковская галерея (текстовой)&lt;/td&gt;&lt;td&gt;м. Полянка (текстовой)&lt;/td&gt;&lt;/tr&gt;&lt;tr style=&quot;background-color: #eaf2d3 ; border: 1px solid #98bf21&quot;&gt;&lt;td&gt;2&lt;/td&gt;&lt;td&gt;Музей народного творчества&lt;/td&gt;&lt;td&gt;м. Красногвардейская&lt;/td&gt;&lt;/tr&gt;&lt;tr style=&quot;border: 1px solid #98bf21&quot;&gt;&lt;td&gt;3&lt;/td&gt;&lt;td&gt;Музей стекла&lt;/td&gt;&lt;td&gt;м. Достоевская&lt;/td&gt;&lt;/tr&gt;&lt;tr style=&quot;background-color: #eaf2d3 ; border: 1px solid #98bf21&quot;&gt;&lt;td&gt;4&lt;/td&gt;&lt;td&gt;Исторический музей&lt;/td&gt;&lt;td&gt;м. Охотный ряд&lt;/td&gt;&lt;/tr&gt;&lt;/tbody&gt;&lt;/table&gt;" parent="1" vertex="1" style="text;html=1;overflow=fill;rounded=0;fillColor=#dae8fc;strokeColor=#6c8ebf;">
          <mxGeometry as="geometry" height="160" width="490" y="323" x="170" />
        </mxCell>
      </root>
    </mxGraphModel>
  </diagram>
</mxfile>
